<?xml version="1.0" encoding="utf-8"?>
<!-- Generator: Adobe Illustrator 25.4.1, SVG Export Plug-In . SVG Version: 6.00 Build 0)  -->
<svg version="1.1"
	 id="svg3116" sodipodi:docbase="E:\Bryan\Temp\SG Glyphs" sodipodi:docname="AtlantisGlyph04.svg" sodipodi:version="0.32" xmlns:cc="http://web.resource.org/cc/" xmlns:dc="http://purl.org/dc/elements/1.1/" xmlns:inkscape="http://www.inkscape.org/namespaces/inkscape" xmlns:rdf="http://www.w3.org/1999/02/22-rdf-syntax-ns#" xmlns:sodipodi="http://sodipodi.sourceforge.net/DTD/sodipodi-0.dtd" xmlns:svg="http://www.w3.org/2000/svg"
	 xmlns="http://www.w3.org/2000/svg" xmlns:xlink="http://www.w3.org/1999/xlink" x="0px" y="0px" viewBox="0 0 120 120"
	 style="enable-background:new 0 0 120 120;" xml:space="preserve">
<style type="text/css">
	.st0{fill-rule:evenodd;clip-rule:evenodd;}
	.st1{fill:none;stroke:#000000;}
	.st2{fill-rule:evenodd;clip-rule:evenodd;fill:#F4B400;}
	.st3{fill-rule:evenodd;clip-rule:evenodd;fill:#FFC200;}
	.st4{fill-rule:evenodd;clip-rule:evenodd;fill:#A37800;}
	.st5{fill-rule:evenodd;clip-rule:evenodd;fill:#DD9E00;}
</style>
<sodipodi:namedview  bordercolor="#666666" borderopacity="1.0" gridtolerance="10.0" guidetolerance="10.0" id="base" inkscape:current-layer="svg3116" inkscape:cx="60" inkscape:cy="60" inkscape:pageopacity="0.0" inkscape:pageshadow="2" inkscape:window-height="721" inkscape:window-width="1024" inkscape:window-x="-4" inkscape:window-y="-4" inkscape:zoom="4.3833333" objecttolerance="10.0" pagecolor="#ffffff">
	</sodipodi:namedview>
<path id="path1932" sodipodi:cx="20.988594" sodipodi:cy="34.676807" sodipodi:rx="4" sodipodi:ry="4" sodipodi:type="arc" class="st0" d="
	M38.9,26.5c0,2.2-1.8,4-4,4c-2.2,0-4-1.8-4-4s1.8-4,4-4C37.1,22.5,38.9,24.3,38.9,26.5z"/>
<path id="path3128" sodipodi:cx="20.988594" sodipodi:cy="34.676807" sodipodi:rx="4" sodipodi:ry="4" sodipodi:type="arc" class="st0" d="
	M81.3,65.7c0,2.2-1.8,4-4,4c-2.2,0-4-1.8-4-4c0-2.2,1.8-4,4-4C79.5,61.7,81.3,63.5,81.3,65.7z"/>
<path id="path3136" class="st1" d="M34.7,26.2l37.9,11.4l4.8,28.3v26.9l11.9,8.9"/>
<path id="path3138" class="st1" d="M53.8,90.6l23.3-24.9"/>
<polygon class="st2" points="44.2,31.6 37.6,31.2 33.6,36.5 31.9,30.1 25.6,27.9 31.2,24.3 31.3,17.7 36.5,21.8 42.8,20 40.4,26.1 
	"/>
<polygon class="st3" points="82.5,80.6 74.9,73 64.4,75 69.2,65.4 64.1,56 74.7,57.7 82.1,49.9 83.7,60.5 93.4,65.1 83.9,70 "/>
<polygon class="st4" points="55.4,94.8 53.1,91.8 49.2,92 51.4,88.8 50,85.2 53.7,86.3 56.6,83.8 56.8,87.7 60,89.8 56.4,91.1 "/>
<polygon class="st3" points="77.5,42.3 73.1,41.4 69.9,44.5 69.4,40 65.5,37.9 69.5,36.1 70.3,31.7 73.3,35 77.7,34.4 75.5,38.3 "/>
<polygon class="st3" points="85.3,95.2 89.5,98.2 94.4,96.4 92.8,101.3 96,105.4 90.8,105.5 87.9,109.7 86.3,104.8 81.3,103.4 
	85.5,100.3 "/>
<polygon class="st5" points="77.2,96.7 76.1,94.6 73.7,94.4 75.3,92.6 74.8,90.2 77,91.2 79,90 78.8,92.4 80.6,94 78.2,94.5 "/>
</svg>
